<svg width="298" height="309" viewBox="0 0 298 309" fill="none" xmlns="http://www.w3.org/2000/svg">
<path d="M181.64 92.304V306H119.72V293.04C110.312 303.6 95.912 308.88 76.52 308.88C62.696 308.88 49.928 305.616 38.216 299.088C26.696 292.368 17.48 282.768 10.568 270.288C3.84801 257.808 0.488007 243.408 0.488007 227.088C0.488007 210.768 3.84801 196.464 10.568 184.176C17.48 171.696 26.696 162.192 38.216 155.664C49.928 148.944 62.696 145.584 76.52 145.584C93.992 145.584 107.336 150.096 116.552 159.12V92.304H181.64ZM92.072 258.192C99.56 258.192 105.704 255.504 110.504 250.128C115.304 244.56 117.704 236.88 117.704 227.088C117.704 217.296 115.304 209.712 110.504 204.336C105.704 198.96 99.56 196.272 92.072 196.272C84.584 196.272 78.44 198.96 73.64 204.336C68.84 209.712 66.44 217.296 66.44 227.088C66.44 236.88 68.84 244.56 73.64 250.128C78.44 255.504 84.584 258.192 92.072 258.192Z" fill="#990033"/>
<path d="M221.52 0.583984C235.344 0.583984 248.016 3.94399 259.536 10.664C271.248 17.192 280.464 26.696 287.184 39.176C294.096 51.656 297.552 66.056 297.552 82.376C297.552 98.696 294.096 113.096 287.184 125.576C280.464 137.864 271.248 147.368 259.536 154.088C248.016 160.616 235.344 163.88 221.52 163.88C204.048 163.88 190.704 159.368 181.488 150.344V216.872H116.4V3.46398H178.32V16.424C187.728 5.86399 202.128 0.583984 221.52 0.583984ZM205.968 113.192C213.456 113.192 219.6 110.504 224.4 105.128C229.2 99.752 231.6 92.168 231.6 82.376C231.6 72.584 229.2 65 224.4 59.624C219.6 54.056 213.456 51.272 205.968 51.272C198.48 51.272 192.336 54.056 187.536 59.624C182.736 65 180.336 72.584 180.336 82.376C180.336 92.168 182.736 99.752 187.536 105.128C192.336 110.504 198.48 113.192 205.968 113.192Z" fill="#990033"/>
</svg>
