<svg xmlns="http://www.w3.org/2000/svg" width="1080" height="1080" fill="none" viewBox="0 0 1080 1080">
  <path fill="#fff" d="M0 0h1080v1080H0z"/>
  <g filter="url(#filter0_d)">
    <path fill="#219653" d="M548.16 456.304V670h-14.112v-35.424c-5.952 11.712-14.304 20.736-25.056 27.072-10.752 6.336-22.944 9.504-36.576 9.504-14.016 0-26.688-3.264-38.016-9.792-11.328-6.528-20.256-15.552-26.784-27.072-6.336-11.52-9.504-24.672-9.504-39.456 0-14.784 3.168-27.936 9.504-39.456 6.528-11.712 15.456-20.736 26.784-27.072 11.328-6.528 24-9.792 38.016-9.792 13.44 0 25.44 3.168 36 9.504 10.752 6.336 19.2 15.168 25.344 26.496v-98.208h14.4zm-74.88 201.888c11.52 0 21.792-2.688 30.816-8.064 9.216-5.376 16.416-12.864 21.6-22.464 5.376-9.6 8.064-20.544 8.064-32.832S531.072 571.6 525.696 562c-5.184-9.6-12.384-17.088-21.6-22.464-9.024-5.376-19.296-8.064-30.816-8.064s-21.888 2.688-31.104 8.064c-9.024 5.376-16.224 12.864-21.6 22.464-5.184 9.6-7.776 20.544-7.776 32.832s2.592 23.232 7.776 32.832c5.376 9.6 12.576 17.088 21.6 22.464 9.216 5.376 19.584 8.064 31.104 8.064z"/>
    <path fill="#6FCF97" d="M666.16 456.304V670h-14.112v-35.424c-5.952 11.712-14.304 20.736-25.056 27.072-10.752 6.336-22.944 9.504-36.576 9.504-14.016 0-26.688-3.264-38.016-9.792-11.328-6.528-20.256-15.552-26.784-27.072-6.336-11.52-9.504-24.672-9.504-39.456 0-14.784 3.168-27.936 9.504-39.456 6.528-11.712 15.456-20.736 26.784-27.072 11.328-6.528 24-9.792 38.016-9.792 13.44 0 25.44 3.168 36 9.504 10.752 6.336 19.2 15.168 25.344 26.496v-98.208h14.4zm-74.88 201.888c11.52 0 21.792-2.688 30.816-8.064 9.216-5.376 16.416-12.864 21.6-22.464 5.376-9.6 8.064-20.544 8.064-32.832S649.072 571.6 643.696 562c-5.184-9.6-12.384-17.088-21.6-22.464-9.024-5.376-19.296-8.064-30.816-8.064s-21.888 2.688-31.104 8.064c-9.024 5.376-16.224 12.864-21.6 22.464-5.184 9.6-7.776 20.544-7.776 32.832s2.592 23.232 7.776 32.832c5.376 9.6 12.576 17.088 21.6 22.464 9.216 5.376 19.584 8.064 31.104 8.064z"/>
  </g>
  <defs>
    <filter id="filter0_d" width="320" height="306" x="380" y="391" color-interpolation-filters="sRGB" filterUnits="userSpaceOnUse">
      <feFlood flood-opacity="0" result="BackgroundImageFix"/>
      <feColorMatrix in="SourceAlpha" values="0 0 0 0 0 0 0 0 0 0 0 0 0 0 0 0 0 0 127 0"/>
      <feOffset dy="4"/>
      <feGaussianBlur stdDeviation="2"/>
      <feColorMatrix values="0 0 0 0 0 0 0 0 0 0 0 0 0 0 0 0 0 0 0.25 0"/>
      <feBlend in2="BackgroundImageFix" result="effect1_dropShadow"/>
      <feBlend in="SourceGraphic" in2="effect1_dropShadow" result="shape"/>
    </filter>
  </defs>
</svg>
